# xmcd CD database file
#
# Track frame offsets:
#	150
#	12951
#	27582
#	38026
#	50264
#
# Disc length: 1047 seconds
#
# Revision: 0
# Processed by: cddbd v1.5.2PL0 Copyright (c) Steve Scherf et al.
# Submitted via: CDex 1.70beta2
#
DISCID=35041505
DTITLE=divers  - cinq clarinettistes pour MichelPortal - Mon CD
DYEAR=2016
DGENRE=Jazz
TTITLE0=Sidney Bechet - High Society
TTITLE1=Duke Ellington - Clarinet Lament
TTITLE2=Artie Shaw (Buddy Rich) - Traffic Jam
TTITLE3=Benny Goodman - I Know That You Know
TTITLE4=Jimmy Giuffre 3 - Jesus Maria
EXTD=YEAR: 2016
EXTT0=
EXTT1=
EXTT2=
EXTT3=
EXTT4=
PLAYORDER=
